<svg width="960" height="720" viewBox="0 0 960 720" fill="none" xmlns="http://www.w3.org/2000/svg">
  <rect width="960" height="720" rx="40" fill="#F7FAFC"/>
  <rect x="36" y="36" width="888" height="648" rx="28" fill="#FFFFFF" stroke="#D9E2EC" stroke-width="4"/>
  <rect x="84" y="96" width="188" height="44" rx="12" fill="#E8F0F8"/>
  <text x="108" y="125" fill="#31587A" font-family="Arial, Helvetica, sans-serif" font-size="24" font-weight="700">arXiv 2026</text>
  <text x="84" y="208" fill="#102A43" font-family="Arial, Helvetica, sans-serif" font-size="54" font-weight="700">GenSplat</text>
  <text x="84" y="258" fill="#486581" font-family="Arial, Helvetica, sans-serif" font-size="28">Camera pose augmentation for</text>
  <text x="84" y="296" fill="#486581" font-family="Arial, Helvetica, sans-serif" font-size="28">view-generalized robotic policy learning</text>
  <rect x="84" y="364" width="340" height="196" rx="24" fill="#F0F4F8" stroke="#D9E2EC" stroke-width="3"/>
  <circle cx="184" cy="430" r="40" fill="#9FB3C8"/>
  <rect x="144" y="474" width="80" height="36" rx="14" fill="#7B93AF"/>
  <rect x="266" y="404" width="116" height="116" rx="18" fill="#D9E2EC"/>
  <path d="M306 478L340 438L372 470" stroke="#486581" stroke-width="12" stroke-linecap="round" stroke-linejoin="round"/>
  <circle cx="340" cy="438" r="14" fill="#486581"/>
  <rect x="520" y="348" width="300" height="240" rx="28" fill="#102A43"/>
  <circle cx="634" cy="430" r="54" fill="#486581"/>
  <circle cx="634" cy="430" r="16" fill="#F0F4F8"/>
  <path d="M704 430H770" stroke="#9FB3C8" stroke-width="12" stroke-linecap="round"/>
  <path d="M748 408L770 430L748 452" stroke="#9FB3C8" stroke-width="12" stroke-linecap="round" stroke-linejoin="round"/>
  <path d="M634 484V544" stroke="#9FB3C8" stroke-width="12" stroke-linecap="round"/>
  <circle cx="634" cy="544" r="16" fill="#9FB3C8"/>
  <path d="M424 462H520" stroke="#BCCCDC" stroke-width="10" stroke-linecap="round" stroke-dasharray="14 16"/>
  <path d="M434 416C464 382 500 368 542 372" stroke="#829AB1" stroke-width="8" stroke-linecap="round" stroke-dasharray="10 14"/>
  <text x="84" y="622" fill="#627D98" font-family="Arial, Helvetica, sans-serif" font-size="24">Feed-forward 3D reconstruction with code release</text>
</svg>
